<?xml version="1.0" standalone="no"?>
<svg xmlns="http://www.w3.org/2000/svg" width="300" height="300"><defs><clipPath id="clip-path-dot-color"><rect x="3" y="115" width="14" height="14" transform="rotate(0,10,122)"/><rect x="3" y="143" width="14" height="14" transform="rotate(0,10,150)"/><rect x="3" y="157" width="14" height="14" transform="rotate(0,10,164)"/><rect x="3" y="171" width="14" height="14" transform="rotate(0,10,178)"/><rect x="17" y="157" width="14" height="14" transform="rotate(0,24,164)"/><rect x="31" y="129" width="14" height="14" transform="rotate(0,38,136)"/><rect x="45" y="129" width="14" height="14" transform="rotate(0,52,136)"/><rect x="45" y="143" width="14" height="14" transform="rotate(0,52,150)"/><rect x="45" y="157" width="14" height="14" transform="rotate(0,52,164)"/><rect x="59" y="115" width="14" height="14" transform="rotate(0,66,122)"/><rect x="59" y="129" width="14" height="14" transform="rotate(0,66,136)"/><rect x="73" y="115" width="14" height="14" transform="rotate(0,80,122)"/><rect x="73" y="129" width="14" height="14" transform="rotate(0,80,136)"/><rect x="73" y="143" width="14" height="14" transform="rotate(0,80,150)"/><rect x="87" y="115" width="14" height="14" transform="rotate(0,94,122)"/><rect x="87" y="143" width="14" height="14" transform="rotate(0,94,150)"/><rect x="87" y="171" width="14" height="14" transform="rotate(0,94,178)"/><rect x="101" y="129" width="14" height="14" transform="rotate(0,108,136)"/><rect x="101" y="143" width="14" height="14" transform="rotate(0,108,150)"/><rect x="115" y="17" width="14" height="14" transform="rotate(0,122,24)"/><rect x="115" y="31" width="14" height="14" transform="rotate(0,122,38)"/><rect x="115" y="45" width="14" height="14" transform="rotate(0,122,52)"/><rect x="115" y="59" width="14" height="14" transform="rotate(0,122,66)"/><rect x="115" y="73" width="14" height="14" transform="rotate(0,122,80)"/><rect x="115" y="87" width="14" height="14" transform="rotate(0,122,94)"/><rect x="115" y="101" width="14" height="14" transform="rotate(0,122,108)"/><rect x="115" y="129" width="14" height="14" transform="rotate(0,122,136)"/><rect x="115" y="143" width="14" height="14" transform="rotate(0,122,150)"/><rect x="115" y="171" width="14" height="14" transform="rotate(0,122,178)"/><rect x="115" y="213" width="14" height="14" transform="rotate(0,122,220)"/><rect x="115" y="227" width="14" height="14" transform="rotate(0,122,234)"/><rect x="115" y="283" width="14" height="14" transform="rotate(0,122,290)"/><rect x="129" y="45" width="14" height="14" transform="rotate(0,136,52)"/><rect x="129" y="59" width="14" height="14" transform="rotate(0,136,66)"/><rect x="129" y="73" width="14" height="14" transform="rotate(0,136,80)"/><rect x="129" y="115" width="14" height="14" transform="rotate(0,136,122)"/><rect x="129" y="129" width="14" height="14" transform="rotate(0,136,136)"/><rect x="129" y="143" width="14" height="14" transform="rotate(0,136,150)"/><rect x="129" y="185" width="14" height="14" transform="rotate(0,136,192)"/><rect x="129" y="199" width="14" height="14" transform="rotate(0,136,206)"/><rect x="129" y="241" width="14" height="14" transform="rotate(0,136,248)"/><rect x="129" y="255" width="14" height="14" transform="rotate(0,136,262)"/><rect x="129" y="283" width="14" height="14" transform="rotate(0,136,290)"/><rect x="143" y="45" width="14" height="14" transform="rotate(0,150,52)"/><rect x="143" y="59" width="14" height="14" transform="rotate(0,150,66)"/><rect x="143" y="87" width="14" height="14" transform="rotate(0,150,94)"/><rect x="143" y="101" width="14" height="14" transform="rotate(0,150,108)"/><rect x="143" y="143" width="14" height="14" transform="rotate(0,150,150)"/><rect x="143" y="171" width="14" height="14" transform="rotate(0,150,178)"/><rect x="143" y="199" width="14" height="14" transform="rotate(0,150,206)"/><rect x="143" y="213" width="14" height="14" transform="rotate(0,150,220)"/><rect x="143" y="241" width="14" height="14" transform="rotate(0,150,248)"/><rect x="143" y="255" width="14" height="14" transform="rotate(0,150,262)"/><rect x="143" y="269" width="14" height="14" transform="rotate(0,150,276)"/><rect x="157" y="3" width="14" height="14" transform="rotate(0,164,10)"/><rect x="157" y="59" width="14" height="14" transform="rotate(0,164,66)"/><rect x="157" y="73" width="14" height="14" transform="rotate(0,164,80)"/><rect x="157" y="101" width="14" height="14" transform="rotate(0,164,108)"/><rect x="157" y="129" width="14" height="14" transform="rotate(0,164,136)"/><rect x="157" y="185" width="14" height="14" transform="rotate(0,164,192)"/><rect x="157" y="199" width="14" height="14" transform="rotate(0,164,206)"/><rect x="157" y="241" width="14" height="14" transform="rotate(0,164,248)"/><rect x="157" y="255" width="14" height="14" transform="rotate(0,164,262)"/><rect x="171" y="3" width="14" height="14" transform="rotate(0,178,10)"/><rect x="171" y="31" width="14" height="14" transform="rotate(0,178,38)"/><rect x="171" y="45" width="14" height="14" transform="rotate(0,178,52)"/><rect x="171" y="73" width="14" height="14" transform="rotate(0,178,80)"/><rect x="171" y="87" width="14" height="14" transform="rotate(0,178,94)"/><rect x="171" y="115" width="14" height="14" transform="rotate(0,178,122)"/><rect x="171" y="157" width="14" height="14" transform="rotate(0,178,164)"/><rect x="171" y="171" width="14" height="14" transform="rotate(0,178,178)"/><rect x="171" y="213" width="14" height="14" transform="rotate(0,178,220)"/><rect x="171" y="269" width="14" height="14" transform="rotate(0,178,276)"/><rect x="185" y="115" width="14" height="14" transform="rotate(0,192,122)"/><rect x="185" y="129" width="14" height="14" transform="rotate(0,192,136)"/><rect x="185" y="157" width="14" height="14" transform="rotate(0,192,164)"/><rect x="185" y="171" width="14" height="14" transform="rotate(0,192,178)"/><rect x="185" y="213" width="14" height="14" transform="rotate(0,192,220)"/><rect x="185" y="255" width="14" height="14" transform="rotate(0,192,262)"/><rect x="185" y="283" width="14" height="14" transform="rotate(0,192,290)"/><rect x="199" y="115" width="14" height="14" transform="rotate(0,206,122)"/><rect x="199" y="129" width="14" height="14" transform="rotate(0,206,136)"/><rect x="199" y="171" width="14" height="14" transform="rotate(0,206,178)"/><rect x="199" y="185" width="14" height="14" transform="rotate(0,206,192)"/><rect x="199" y="227" width="14" height="14" transform="rotate(0,206,234)"/><rect x="199" y="269" width="14" height="14" transform="rotate(0,206,276)"/><rect x="213" y="115" width="14" height="14" transform="rotate(0,220,122)"/><rect x="213" y="143" width="14" height="14" transform="rotate(0,220,150)"/><rect x="213" y="213" width="14" height="14" transform="rotate(0,220,220)"/><rect x="213" y="227" width="14" height="14" transform="rotate(0,220,234)"/><rect x="213" y="241" width="14" height="14" transform="rotate(0,220,248)"/><rect x="213" y="255" width="14" height="14" transform="rotate(0,220,262)"/><rect x="213" y="269" width="14" height="14" transform="rotate(0,220,276)"/><rect x="227" y="115" width="14" height="14" transform="rotate(0,234,122)"/><rect x="227" y="129" width="14" height="14" transform="rotate(0,234,136)"/><rect x="227" y="185" width="14" height="14" transform="rotate(0,234,192)"/><rect x="227" y="227" width="14" height="14" transform="rotate(0,234,234)"/><rect x="227" y="241" width="14" height="14" transform="rotate(0,234,248)"/><rect x="227" y="269" width="14" height="14" transform="rotate(0,234,276)"/><rect x="241" y="115" width="14" height="14" transform="rotate(0,248,122)"/><rect x="241" y="143" width="14" height="14" transform="rotate(0,248,150)"/><rect x="241" y="157" width="14" height="14" transform="rotate(0,248,164)"/><rect x="241" y="171" width="14" height="14" transform="rotate(0,248,178)"/><rect x="241" y="185" width="14" height="14" transform="rotate(0,248,192)"/><rect x="241" y="199" width="14" height="14" transform="rotate(0,248,206)"/><rect x="241" y="213" width="14" height="14" transform="rotate(0,248,220)"/><rect x="241" y="241" width="14" height="14" transform="rotate(0,248,248)"/><rect x="241" y="255" width="14" height="14" transform="rotate(0,248,262)"/><rect x="255" y="115" width="14" height="14" transform="rotate(0,262,122)"/><rect x="255" y="129" width="14" height="14" transform="rotate(0,262,136)"/><rect x="255" y="171" width="14" height="14" transform="rotate(0,262,178)"/><rect x="255" y="199" width="14" height="14" transform="rotate(0,262,206)"/><rect x="255" y="213" width="14" height="14" transform="rotate(0,262,220)"/><rect x="255" y="241" width="14" height="14" transform="rotate(0,262,248)"/><rect x="255" y="255" width="14" height="14" transform="rotate(0,262,262)"/><rect x="269" y="115" width="14" height="14" transform="rotate(0,276,122)"/><rect x="269" y="129" width="14" height="14" transform="rotate(0,276,136)"/><rect x="269" y="157" width="14" height="14" transform="rotate(0,276,164)"/><rect x="269" y="171" width="14" height="14" transform="rotate(0,276,178)"/><rect x="269" y="185" width="14" height="14" transform="rotate(0,276,192)"/><rect x="269" y="199" width="14" height="14" transform="rotate(0,276,206)"/><rect x="269" y="227" width="14" height="14" transform="rotate(0,276,234)"/><rect x="269" y="241" width="14" height="14" transform="rotate(0,276,248)"/><rect x="269" y="255" width="14" height="14" transform="rotate(0,276,262)"/><rect x="283" y="143" width="14" height="14" transform="rotate(0,290,150)"/><rect x="283" y="171" width="14" height="14" transform="rotate(0,290,178)"/><rect x="283" y="269" width="14" height="14" transform="rotate(0,290,276)"/><path clip-rule="evenodd" d="M 52 3a 49 49 0 1 0 0.1 0zm 0 14a 35 35 0 1 1 -0.1 0Z" transform="rotate(0,52,52)"/><rect x="31" y="31" width="14" height="14" transform="rotate(0,38,38)"/><rect x="31" y="45" width="14" height="14" transform="rotate(0,38,52)"/><rect x="31" y="59" width="14" height="14" transform="rotate(0,38,66)"/><rect x="45" y="31" width="14" height="14" transform="rotate(0,52,38)"/><rect x="45" y="45" width="14" height="14" transform="rotate(0,52,52)"/><rect x="45" y="59" width="14" height="14" transform="rotate(0,52,66)"/><rect x="59" y="31" width="14" height="14" transform="rotate(0,66,38)"/><rect x="59" y="45" width="14" height="14" transform="rotate(0,66,52)"/><rect x="59" y="59" width="14" height="14" transform="rotate(0,66,66)"/><path clip-rule="evenodd" d="M 248 3a 49 49 0 1 0 0.1 0zm 0 14a 35 35 0 1 1 -0.1 0Z" transform="rotate(90,248,52)"/><rect x="227" y="31" width="14" height="14" transform="rotate(0,234,38)"/><rect x="227" y="45" width="14" height="14" transform="rotate(0,234,52)"/><rect x="227" y="59" width="14" height="14" transform="rotate(0,234,66)"/><rect x="241" y="31" width="14" height="14" transform="rotate(0,248,38)"/><rect x="241" y="45" width="14" height="14" transform="rotate(0,248,52)"/><rect x="241" y="59" width="14" height="14" transform="rotate(0,248,66)"/><rect x="255" y="31" width="14" height="14" transform="rotate(0,262,38)"/><rect x="255" y="45" width="14" height="14" transform="rotate(0,262,52)"/><rect x="255" y="59" width="14" height="14" transform="rotate(0,262,66)"/><path clip-rule="evenodd" d="M 52 199a 49 49 0 1 0 0.1 0zm 0 14a 35 35 0 1 1 -0.1 0Z" transform="rotate(-90,52,248)"/><rect x="31" y="227" width="14" height="14" transform="rotate(0,38,234)"/><rect x="31" y="241" width="14" height="14" transform="rotate(0,38,248)"/><rect x="31" y="255" width="14" height="14" transform="rotate(0,38,262)"/><rect x="45" y="227" width="14" height="14" transform="rotate(0,52,234)"/><rect x="45" y="241" width="14" height="14" transform="rotate(0,52,248)"/><rect x="45" y="255" width="14" height="14" transform="rotate(0,52,262)"/><rect x="59" y="227" width="14" height="14" transform="rotate(0,66,234)"/><rect x="59" y="241" width="14" height="14" transform="rotate(0,66,248)"/><rect x="59" y="255" width="14" height="14" transform="rotate(0,66,262)"/></clipPath></defs><rect x="0" y="0" height="300" width="300" clip-path="url('#clip-path-background-color')" fill="#ffffff"/><rect x="3" y="3" height="294" width="294" clip-path="url('#clip-path-dot-color')" fill="#000000"/></svg>